<svg width="152" height="148" viewBox="0 0 152 148" fill="none" xmlns="http://www.w3.org/2000/svg">
    <g opacity="0.3" clip-path="url(#clip0_3134_381)">
        <path d="M96.4958 33.2847H55.5384C54.605 33.2858 53.7103 33.6562 53.0503 34.3145C52.3903 34.9728 52.019 35.8654 52.0179 36.7964V127.597L51.5485 127.74L41.501 130.809C41.0248 130.954 40.5105 130.904 40.0709 130.671C39.6313 130.438 39.3024 130.041 39.1564 129.566L9.26967 32.1867C9.12423 31.7117 9.1738 31.1986 9.40749 30.76C9.64118 30.3214 10.0399 29.9934 10.5159 29.8479L25.9991 25.1188L70.8854 11.4139L86.3685 6.6848C86.6041 6.61246 86.8518 6.58719 87.0972 6.61041C87.3426 6.63364 87.581 6.70492 87.7988 6.82017C88.0166 6.93542 88.2095 7.09238 88.3664 7.28206C88.5233 7.47174 88.6411 7.69043 88.7132 7.9256L96.3526 32.8165L96.4958 33.2847Z" fill="#F2F2F2"/>
        <path d="M105.433 32.8167L96.2261 2.81744C96.0729 2.3176 95.8224 1.85277 95.4891 1.4495C95.1557 1.04624 94.746 0.712445 94.2833 0.467202C93.8205 0.221959 93.3139 0.0700678 92.7923 0.0202138C92.2707 -0.0296402 91.7444 0.0235199 91.2434 0.176651L69.475 6.82311L24.5911 20.5304L2.8227 27.1792C1.81146 27.489 0.96473 28.1863 0.468373 29.1181C-0.0279844 30.0499 -0.133418 31.1402 0.17522 32.1494L31.6438 134.674C31.8945 135.489 32.4004 136.202 33.0872 136.709C33.7741 137.216 34.6057 137.49 35.46 137.491C35.8555 137.491 36.2487 137.432 36.6264 137.315L51.5487 132.759L52.0181 132.614V132.125L51.5487 132.268L36.488 136.868C35.5954 137.14 34.6313 137.047 33.8072 136.61C32.9831 136.173 32.3663 135.428 32.0921 134.539L0.62594 32.0113C0.49007 31.5705 0.442715 31.1072 0.486587 30.6481C0.530458 30.1889 0.66469 29.7429 0.881604 29.3356C1.09852 28.9283 1.39385 28.5677 1.75069 28.2744C2.10753 27.9811 2.51886 27.7609 2.96113 27.6264L24.7295 20.9776L69.6135 7.27261L91.3819 0.623811C91.7174 0.521691 92.0661 0.469622 92.4169 0.469296C93.1696 0.470982 93.902 0.713044 94.5068 1.16003C95.1116 1.60701 95.557 2.23543 95.7779 2.95323L104.943 32.8167L105.088 33.2849H105.577L105.433 32.8167Z" fill="#3F3D56"/>
        <path d="M28.7932 29.9245C28.3408 29.9242 27.9005 29.7793 27.5367 29.511C27.173 29.2428 26.905 28.8653 26.7721 28.434L23.7491 18.5844C23.6679 18.3199 23.6397 18.0419 23.6661 17.7665C23.6926 17.491 23.7732 17.2235 23.9033 16.9791C24.0335 16.7348 24.2106 16.5184 24.4246 16.3423C24.6386 16.1662 24.8853 16.0339 25.1505 15.9529L66.4434 3.34275C66.979 3.17969 67.5577 3.2353 68.0523 3.49737C68.5469 3.75943 68.9171 4.20654 69.0815 4.74057L72.1046 14.5902C72.2679 15.1246 72.2121 15.7017 71.9494 16.1951C71.6867 16.6884 71.2385 17.0577 70.7032 17.2218L29.4103 29.832C29.2103 29.8932 29.0023 29.9244 28.7932 29.9245Z" fill="#6C63FF"/>
        <path d="M44.6289 10.5245C47.2214 10.5245 49.3229 8.42814 49.3229 5.8422C49.3229 3.25626 47.2214 1.15994 44.6289 1.15994C42.0365 1.15994 39.9349 3.25626 39.9349 5.8422C39.9349 8.42814 42.0365 10.5245 44.6289 10.5245Z" fill="#6C63FF"/>
        <path d="M44.629 8.80716C46.2706 8.80716 47.6014 7.47971 47.6014 5.84221C47.6014 4.20471 46.2706 2.87726 44.629 2.87726C42.9874 2.87726 41.6566 4.20471 41.6566 5.84221C41.6566 7.47971 42.9874 8.80716 44.629 8.80716Z" fill="white"/>
        <path d="M141.439 136.294H62.1101C61.5812 136.294 61.0741 136.084 60.7001 135.711C60.3261 135.338 60.1157 134.832 60.1151 134.304V39.4887C60.1157 38.9611 60.3261 38.4553 60.7001 38.0822C61.0741 37.7092 61.5811 37.4993 62.1101 37.4987H141.439C141.967 37.4994 142.475 37.7092 142.849 38.0823C143.222 38.4553 143.433 38.9611 143.433 39.4887V134.304C143.433 134.832 143.222 135.338 142.848 135.711C142.474 136.084 141.967 136.294 141.439 136.294Z" fill="#E6E6E6"/>
        <path d="M104.943 32.8165H55.5385C54.4808 32.818 53.4668 33.2378 52.7189 33.9838C51.9709 34.7299 51.5501 35.7413 51.5486 36.7964V132.268L52.018 132.125V36.7964C52.0191 35.8654 52.3904 34.9729 53.0504 34.3145C53.7103 33.6562 54.6051 33.2859 55.5385 33.2847H105.088L104.943 32.8165ZM148.01 32.8165H55.5385C54.4808 32.818 53.4668 33.2378 52.7189 33.9838C51.9709 34.7299 51.5501 35.7413 51.5486 36.7964V144.02C51.5501 145.075 51.9709 146.087 52.7189 146.833C53.4668 147.579 54.4808 147.999 55.5385 148H148.01C149.068 147.999 150.082 147.579 150.83 146.833C151.578 146.087 151.999 145.075 152 144.02V36.7964C151.999 35.7413 151.578 34.7299 150.83 33.9838C150.082 33.2378 149.068 32.818 148.01 32.8165ZM151.531 144.02C151.53 144.951 151.158 145.844 150.498 146.502C149.838 147.16 148.943 147.531 148.01 147.532H55.5385C54.6051 147.531 53.7103 147.16 53.0504 146.502C52.3904 145.844 52.0191 144.951 52.018 144.02V36.7964C52.0191 35.8654 52.3904 34.9729 53.0504 34.3145C53.7103 33.6562 54.6051 33.2859 55.5385 33.2847H148.01C148.943 33.2859 149.838 33.6562 150.498 34.3145C151.158 34.9729 151.53 35.8654 151.531 36.7964V144.02Z" fill="#3F3D56"/>
        <path d="M123.367 43.1174H80.182C79.622 43.1168 79.0851 42.8946 78.6891 42.4996C78.2931 42.1046 78.0703 41.569 78.0697 41.0104V30.7095C78.0703 30.1508 78.2931 29.6153 78.6891 29.2203C79.0851 28.8253 79.622 28.6031 80.182 28.6024H123.367C123.927 28.6031 124.464 28.8253 124.86 29.2203C125.256 29.6153 125.478 30.1508 125.479 30.7095V41.0104C125.478 41.569 125.256 42.1046 124.86 42.4996C124.464 42.8946 123.927 43.1168 123.367 43.1174Z" fill="#6C63FF"/>
        <path d="M101.774 29.3048C104.367 29.3048 106.468 27.2085 106.468 24.6225C106.468 22.0366 104.367 19.9403 101.774 19.9403C99.1819 19.9403 97.0803 22.0366 97.0803 24.6225C97.0803 27.2085 99.1819 29.3048 101.774 29.3048Z" fill="#6C63FF"/>
        <path d="M101.774 27.4745C103.353 27.4745 104.633 26.1976 104.633 24.6225C104.633 23.0475 103.353 21.7706 101.774 21.7706C100.195 21.7706 98.9152 23.0475 98.9152 24.6225C98.9152 26.1976 100.195 27.4745 101.774 27.4745Z" fill="white"/>
    </g>
    <defs>
        <clipPath id="clip0_3134_381">
            <rect width="152" height="148" fill="white"/>
        </clipPath>
    </defs>
</svg>
