<svg width="159" height="35" viewBox="0 0 159 35" fill="none" xmlns="http://www.w3.org/2000/svg">
    <path fill-rule="evenodd" clip-rule="evenodd" d="M2 5.5H22C23.1046 5.5 24 6.39543 24 7.5V27.5C24 28.6046 23.1046 29.5 22 29.5H2C0.895431 29.5 0 28.6046 0 27.5V7.5C0 6.39543 0.895431 5.5 2 5.5ZM20.0607 15.9749C20.4512 15.5844 20.4512 14.9513 20.0607 14.5607L17.9394 12.4394C17.5489 12.0489 16.9157 12.0489 16.5252 12.4394L11.5 17.4645L8.47491 14.4394C8.08438 14.0489 7.45123 14.0489 7.0607 14.4394L4.93936 16.5607C4.54886 16.9513 4.54886 17.5844 4.93936 17.9749L10.7929 23.8285C11.1834 24.219 11.8166 24.219 12.2072 23.8285L20.0607 15.9749Z" fill="#1349C3"/>
    <path d="M51.7372 14.2656H47.3821C47.3026 13.7022 47.1402 13.2017 46.8949 12.7642C46.6496 12.3201 46.3348 11.9422 45.9503 11.6307C45.5658 11.3191 45.1217 11.0805 44.6179 10.9148C44.1207 10.7491 43.5805 10.6662 42.9972 10.6662C41.9432 10.6662 41.0251 10.928 40.2429 11.4517C39.4607 11.9687 38.8542 12.7244 38.4233 13.7188C37.9924 14.7064 37.777 15.9062 37.777 17.3182C37.777 18.7699 37.9924 19.9896 38.4233 20.9773C38.8608 21.965 39.4706 22.7107 40.2528 23.2145C41.035 23.7183 41.9399 23.9702 42.9673 23.9702C43.544 23.9702 44.0777 23.8939 44.5682 23.7415C45.0653 23.589 45.5062 23.367 45.8906 23.0753C46.2751 22.777 46.5933 22.4157 46.8452 21.9915C47.1037 21.5672 47.2827 21.0833 47.3821 20.5398L51.7372 20.5597C51.6245 21.4943 51.3428 22.3958 50.892 23.2642C50.4479 24.1259 49.848 24.8982 49.0923 25.581C48.3433 26.2571 47.4484 26.794 46.4077 27.1918C45.3736 27.5829 44.2036 27.7784 42.8977 27.7784C41.0814 27.7784 39.4574 27.3674 38.0256 26.5455C36.6004 25.7235 35.4735 24.5336 34.6449 22.9759C33.8229 21.4181 33.4119 19.5322 33.4119 17.3182C33.4119 15.0975 33.8295 13.2083 34.6648 11.6506C35.5 10.0928 36.6335 8.90625 38.0653 8.09091C39.4972 7.26894 41.108 6.85795 42.8977 6.85795C44.0777 6.85795 45.1714 7.02367 46.179 7.35511C47.1932 7.68655 48.0914 8.17045 48.8736 8.80682C49.6558 9.43655 50.2921 10.2088 50.7827 11.1236C51.2798 12.0384 51.598 13.0857 51.7372 14.2656ZM58.9808 7.13636V27.5H54.745V7.13636H58.9808ZM62.3739 27.5V12.2273H66.6097V27.5H62.3739ZM64.5018 10.2585C63.872 10.2585 63.3318 10.0497 62.881 9.6321C62.4369 9.20786 62.2148 8.70076 62.2148 8.11079C62.2148 7.52746 62.4369 7.02699 62.881 6.60938C63.3318 6.18513 63.872 5.97301 64.5018 5.97301C65.1315 5.97301 65.6684 6.18513 66.1126 6.60938C66.5633 7.02699 66.7887 7.52746 66.7887 8.11079C66.7887 8.70076 66.5633 9.20786 66.1126 9.6321C65.6684 10.0497 65.1315 10.2585 64.5018 10.2585ZM76.9034 27.7983C75.339 27.7983 73.9934 27.4669 72.8665 26.804C71.7462 26.1345 70.8845 25.2064 70.2812 24.0199C69.6847 22.8333 69.3864 21.4678 69.3864 19.9233C69.3864 18.3589 69.688 16.9867 70.2912 15.8068C70.901 14.6203 71.7661 13.6955 72.8864 13.0327C74.0066 12.3632 75.339 12.0284 76.8835 12.0284C78.2159 12.0284 79.3826 12.2704 80.3835 12.7543C81.3845 13.2382 82.1766 13.9176 82.7599 14.7926C83.3433 15.6676 83.6648 16.6951 83.7244 17.875H79.7273C79.6146 17.1127 79.3163 16.4995 78.8324 16.0355C78.3551 15.5649 77.7287 15.3295 76.9531 15.3295C76.2969 15.3295 75.7235 15.5085 75.233 15.8665C74.7491 16.2178 74.3712 16.7315 74.0994 17.4077C73.8277 18.0838 73.6918 18.9025 73.6918 19.8636C73.6918 20.8381 73.8243 21.6667 74.0895 22.3494C74.3613 23.0322 74.7424 23.5526 75.233 23.9105C75.7235 24.2685 76.2969 24.4474 76.9531 24.4474C77.437 24.4474 77.8712 24.348 78.2557 24.1491C78.6468 23.9503 78.9683 23.6619 79.2202 23.2841C79.4787 22.8996 79.6477 22.4389 79.7273 21.902H83.7244C83.6581 23.0687 83.34 24.0961 82.7699 24.9844C82.2064 25.866 81.4276 26.5554 80.4332 27.0526C79.4389 27.5497 78.2623 27.7983 76.9034 27.7983ZM90.2745 23.1051L90.2844 18.0241H90.9009L95.793 12.2273H100.655L94.0827 19.9034H93.0785L90.2745 23.1051ZM86.4364 27.5V7.13636H90.6722V27.5H86.4364ZM95.9819 27.5L91.4876 20.848L94.3114 17.8551L100.944 27.5H95.9819ZM102.813 7.13636H108.123L113.73 20.8182H113.969L119.577 7.13636H124.887V27.5H120.711V14.2457H120.542L115.272 27.4006H112.428L107.158 14.196H106.989V27.5H102.813V7.13636ZM132.71 27.7884C131.735 27.7884 130.867 27.6193 130.104 27.2812C129.342 26.9366 128.739 26.4295 128.295 25.7599C127.857 25.0838 127.638 24.242 127.638 23.2344C127.638 22.3859 127.794 21.6733 128.106 21.0966C128.417 20.5199 128.842 20.0559 129.379 19.7045C129.915 19.3532 130.525 19.0881 131.208 18.9091C131.897 18.7301 132.62 18.6042 133.376 18.5312C134.264 18.4384 134.98 18.3523 135.523 18.2727C136.067 18.1866 136.461 18.0606 136.707 17.8949C136.952 17.7292 137.075 17.4839 137.075 17.1591V17.0994C137.075 16.4697 136.876 15.9825 136.478 15.6378C136.087 15.2931 135.53 15.1207 134.808 15.1207C134.045 15.1207 133.439 15.2898 132.988 15.6278C132.537 15.9593 132.239 16.3769 132.093 16.8807L128.175 16.5625C128.374 15.6345 128.765 14.8324 129.349 14.1562C129.932 13.4735 130.684 12.9498 131.606 12.5852C132.534 12.214 133.608 12.0284 134.827 12.0284C135.676 12.0284 136.488 12.1278 137.263 12.3267C138.046 12.5256 138.738 12.8338 139.342 13.2514C139.951 13.669 140.432 14.206 140.783 14.8622C141.135 15.5118 141.31 16.2907 141.31 17.1989V27.5H137.293V25.3821H137.174C136.929 25.8594 136.601 26.2803 136.19 26.6449C135.779 27.0028 135.285 27.2846 134.708 27.4901C134.131 27.6889 133.465 27.7884 132.71 27.7884ZM133.923 24.8651C134.546 24.8651 135.096 24.7424 135.573 24.4972C136.05 24.2453 136.425 23.9072 136.697 23.483C136.969 23.0587 137.104 22.5781 137.104 22.0412V20.4205C136.972 20.5066 136.79 20.5862 136.558 20.6591C136.332 20.7254 136.077 20.7884 135.792 20.848C135.507 20.901 135.222 20.9508 134.937 20.9972C134.652 21.0369 134.393 21.0734 134.161 21.1065C133.664 21.1795 133.23 21.2955 132.859 21.4545C132.487 21.6136 132.199 21.8291 131.994 22.1009C131.788 22.366 131.685 22.6974 131.685 23.0952C131.685 23.6719 131.894 24.1127 132.312 24.4176C132.736 24.7159 133.273 24.8651 133.923 24.8651ZM144.597 27.5V12.2273H148.832V27.5H144.597ZM146.724 10.2585C146.095 10.2585 145.554 10.0497 145.104 9.6321C144.66 9.20786 144.438 8.70076 144.438 8.11079C144.438 7.52746 144.66 7.02699 145.104 6.60938C145.554 6.18513 146.095 5.97301 146.724 5.97301C147.354 5.97301 147.891 6.18513 148.335 6.60938C148.786 7.02699 149.011 7.52746 149.011 8.11079C149.011 8.70076 148.786 9.20786 148.335 9.6321C147.891 10.0497 147.354 10.2585 146.724 10.2585ZM156.461 7.13636V27.5H152.225V7.13636H156.461Z" fill="white"/>
</svg>
