<svg width="324" height="246" viewBox="0 0 324 246" fill="none" xmlns="http://www.w3.org/2000/svg">
    <g opacity="0.3" clip-path="url(#clip0_3134_396)">
        <path d="M324 132.085V235.429C323.997 238.231 322.878 240.918 320.889 242.9C318.9 244.882 316.204 245.997 313.392 246H233.846L234.584 245.068L323.065 133.269L324 132.085Z" fill="#F2F2F2"/>
        <path d="M126.613 95.6829H35.2721C34.5236 95.6829 33.8058 95.9791 33.2766 96.5065C32.7474 97.0339 32.4501 97.7492 32.4501 98.4951C32.4501 99.2409 32.7474 99.9562 33.2766 100.484C33.8058 101.011 34.5236 101.307 35.2721 101.307H126.613C127.362 101.307 128.08 101.011 128.609 100.484C129.138 99.9562 129.435 99.2409 129.435 98.4951C129.435 97.7492 129.138 97.0339 128.609 96.5065C128.08 95.9791 127.362 95.6829 126.613 95.6829Z" fill="#E6E6E6"/>
        <path d="M63.5926 79.9143H35.2721C34.5236 79.9143 33.8058 80.2106 33.2766 80.738C32.7474 81.2654 32.4501 81.9807 32.4501 82.7265C32.4501 83.4724 32.7474 84.1877 33.2766 84.7151C33.8058 85.2425 34.5236 85.5388 35.2721 85.5388H63.5927C64.3411 85.5388 65.0589 85.2425 65.5882 84.7151C66.1174 84.1877 66.4147 83.4724 66.4147 82.7265C66.4147 81.9807 66.1174 81.2654 65.5882 80.738C65.0589 80.2106 64.3411 79.9143 63.5926 79.9143Z" fill="#E6E6E6"/>
        <path d="M313.392 0H10.6083C7.79585 0.00337467 5.09955 1.11824 3.11084 3.10004C1.12213 5.08185 0.00338643 7.76878 0 10.5715V235.429C0.00338643 238.231 1.12213 240.918 3.11084 242.9C5.09955 244.882 7.79585 245.997 10.6083 246H313.392C316.204 245.997 318.9 244.882 320.889 242.9C322.878 240.918 323.997 238.231 324 235.429V10.5715C323.997 7.76878 322.878 5.08185 320.889 3.10004C318.9 1.11824 316.204 0.00337467 313.392 0ZM323.065 235.429C323.065 236.694 322.815 237.948 322.329 239.117C321.842 240.287 321.13 241.35 320.232 242.245C319.333 243.14 318.267 243.85 317.093 244.334C315.92 244.819 314.662 245.068 313.392 245.068H10.6083C8.04281 245.068 5.58238 244.053 3.7683 242.245C1.95421 240.437 0.935065 237.985 0.935065 235.429V73.4625C0.935065 54.2261 8.60329 35.7777 22.2528 22.1756C35.9024 8.57342 54.4151 0.931818 73.7184 0.931818H313.392C314.662 0.931818 315.92 1.18116 317.093 1.6656C318.267 2.15003 319.333 2.86009 320.232 3.75521C321.13 4.65034 321.842 5.713 322.329 6.88254C322.815 8.05208 323.065 9.30558 323.065 10.5715V235.429Z" fill="#E6E6E6"/>
        <path d="M294.494 40.6591H29.5293C29.4053 40.6591 29.2864 40.61 29.1987 40.5227C29.111 40.4353 29.0618 40.3168 29.0618 40.1932C29.0618 40.0696 29.111 39.9511 29.1987 39.8638C29.2864 39.7764 29.4053 39.7273 29.5293 39.7273H294.494C294.618 39.7273 294.737 39.7764 294.825 39.8638C294.913 39.9511 294.962 40.0696 294.962 40.1932C294.962 40.3168 294.913 40.4353 294.825 40.5227C294.737 40.61 294.618 40.6591 294.494 40.6591Z" fill="#E6E6E6"/>
        <path d="M42.7861 26.6723C44.9697 26.6723 46.7399 24.869 46.7399 22.6445C46.7399 20.42 44.9697 18.6167 42.7861 18.6167C40.6025 18.6167 38.8324 20.42 38.8324 22.6445C38.8324 24.869 40.6025 26.6723 42.7861 26.6723Z" fill="#E6E6E6"/>
        <path d="M56.4446 26.6723C58.6282 26.6723 60.3983 24.869 60.3983 22.6445C60.3983 20.42 58.6282 18.6167 56.4446 18.6167C54.261 18.6167 52.4908 20.42 52.4908 22.6445C52.4908 24.869 54.261 26.6723 56.4446 26.6723Z" fill="#E6E6E6"/>
        <path d="M70.1029 26.6723C72.2865 26.6723 74.0567 24.869 74.0567 22.6445C74.0567 20.42 72.2865 18.6167 70.1029 18.6167C67.9193 18.6167 66.1492 20.42 66.1492 22.6445C66.1492 24.869 67.9193 26.6723 70.1029 26.6723Z" fill="#E6E6E6"/>
        <path d="M85.6771 25.8281C85.6148 25.8282 85.5532 25.8159 85.4958 25.7918C85.4384 25.7677 85.3864 25.7324 85.3429 25.688L82.6751 22.9704C82.5896 22.8833 82.5417 22.7664 82.5417 22.6446C82.5417 22.5228 82.5896 22.4058 82.6751 22.3188L85.3429 19.6014C85.3857 19.557 85.4368 19.5214 85.4935 19.4968C85.5501 19.4722 85.6111 19.459 85.6729 19.4581C85.7346 19.4571 85.796 19.4683 85.8534 19.4911C85.9108 19.5139 85.963 19.5478 86.0072 19.5908C86.0514 19.6339 86.0865 19.6852 86.1107 19.7419C86.1348 19.7986 86.1474 19.8595 86.1478 19.921C86.1482 19.9826 86.1363 20.0436 86.1129 20.1006C86.0895 20.1576 86.0549 20.2093 86.0113 20.2529L83.6634 22.6446L86.0113 25.0365C86.0757 25.102 86.1192 25.1851 86.1364 25.2751C86.1536 25.3652 86.1437 25.4584 86.108 25.5429C86.0723 25.6274 86.0124 25.6996 85.9358 25.7503C85.8591 25.8011 85.7691 25.8281 85.6771 25.8281Z" fill="#E6E6E6"/>
        <path d="M90.16 25.828C90.068 25.828 89.978 25.8009 89.9014 25.7502C89.8247 25.6994 89.7648 25.6273 89.7291 25.5428C89.6934 25.4582 89.6835 25.3651 89.7007 25.275C89.718 25.1849 89.7614 25.1019 89.8258 25.0363L92.1735 22.6444L89.8258 20.2528C89.7405 20.1642 89.6938 20.0456 89.6957 19.9228C89.6977 19.8001 89.7482 19.683 89.8363 19.5972C89.9243 19.5113 90.0429 19.4636 90.1661 19.4644C90.2893 19.4651 90.4072 19.5143 90.4942 19.6012L93.1618 22.3187C93.2473 22.4057 93.2951 22.5226 93.2951 22.6444C93.2951 22.7662 93.2473 22.8832 93.1618 22.9702L90.4942 25.6879C90.4507 25.7323 90.3988 25.7676 90.3414 25.7917C90.2839 25.8157 90.2223 25.8281 90.16 25.828Z" fill="#E6E6E6"/>
        <path d="M270.866 19.083H265.905C265.771 19.083 265.638 19.1093 265.513 19.1606C265.389 19.2119 265.276 19.287 265.181 19.3818C265.086 19.4765 265.011 19.589 264.959 19.7128C264.908 19.8366 264.881 19.9693 264.881 20.1033V25.0513C264.881 25.1853 264.908 25.318 264.959 25.4418C265.011 25.5656 265.086 25.6781 265.181 25.7729C265.276 25.8676 265.389 25.9428 265.513 25.9941C265.638 26.0453 265.771 26.0717 265.905 26.0716H270.866C271.138 26.0719 271.399 25.9646 271.592 25.7734C271.785 25.5821 271.893 25.3224 271.894 25.0513V20.1033C271.893 19.8322 271.785 19.5726 271.592 19.3813C271.399 19.19 271.138 19.0827 270.866 19.083Z" fill="#E6E6E6"/>
        <path d="M258.71 19.083H253.749C253.615 19.083 253.482 19.1093 253.358 19.1606C253.233 19.2119 253.12 19.287 253.025 19.3818C252.93 19.4765 252.855 19.589 252.803 19.7128C252.752 19.8366 252.726 19.9693 252.726 20.1033V25.0513C252.726 25.1853 252.752 25.318 252.803 25.4418C252.855 25.5656 252.93 25.6781 253.025 25.7729C253.12 25.8676 253.233 25.9428 253.358 25.9941C253.482 26.0453 253.615 26.0717 253.749 26.0716H258.71C258.982 26.0719 259.243 25.9646 259.436 25.7734C259.629 25.5821 259.738 25.3224 259.739 25.0513V20.1033C259.738 19.8322 259.629 19.5726 259.436 19.3813C259.243 19.19 258.982 19.0827 258.71 19.083Z" fill="#E6E6E6"/>
        <path d="M282.32 19.3162H277.36C277.225 19.3161 277.092 19.3425 276.968 19.3937C276.844 19.445 276.731 19.5202 276.636 19.6149C276.541 19.7097 276.465 19.8222 276.414 19.946C276.362 20.0698 276.336 20.2025 276.336 20.3365V25.2845C276.336 25.4185 276.362 25.5512 276.414 25.675C276.465 25.7988 276.541 25.9113 276.636 26.006C276.731 26.1008 276.844 26.1759 276.968 26.2272C277.092 26.2785 277.225 26.3048 277.36 26.3048H282.32C282.592 26.3051 282.853 26.1978 283.046 26.0065C283.239 25.8152 283.348 25.5556 283.349 25.2845V20.3365C283.348 20.0654 283.239 19.8057 283.046 19.6144C282.853 19.4232 282.592 19.3159 282.32 19.3162Z" fill="#E6E6E6"/>
        <path d="M181.837 21.1982H142.186C141.855 21.1982 141.537 21.3293 141.303 21.5626C141.069 21.7959 140.938 22.1123 140.938 22.4422C140.938 22.7721 141.069 23.0886 141.303 23.3218C141.537 23.5551 141.855 23.6862 142.186 23.6862H181.837C182.169 23.6862 182.486 23.5551 182.72 23.3218C182.954 23.0886 183.086 22.7721 183.086 22.4422C183.086 22.1123 182.954 21.7959 182.72 21.5626C182.486 21.3293 182.169 21.1982 181.837 21.1982Z" fill="#E6E6E6"/>
        <path d="M75.5567 191.231L51.8449 190.484C48.5561 190.38 44.8578 190.385 42.5121 192.079C39.8499 194.001 40.253 197.407 42.4634 199.616C44.6738 201.825 48.2033 203.087 51.6674 204.113C70.0713 209.564 90.4392 210.671 110.216 209.437C129.993 208.204 149.362 204.717 168.637 201.242C170.465 200.912 172.537 200.438 173.282 199.17C174.003 197.944 173.06 196.465 171.594 195.672C170.128 194.879 168.27 194.612 166.478 194.376C134.009 190.125 101.189 189.192 68.5293 191.592" fill="#6C63FF"/>
        <path d="M118.159 173.057V167.466C114.088 167.524 99.5188 167.425 95.7179 167.467C95.4351 187.007 93.7013 183.179 109.766 183.256C110.505 183.258 111.212 183.552 111.733 184.073C112.255 184.594 112.548 185.3 112.549 186.035V186.119C112.549 186.856 112.255 187.563 111.732 188.084C111.209 188.606 110.5 188.898 109.76 188.898H95.7179V194.489H118.159C118.191 194.47 118.137 189.091 118.16 188.898C119.108 172.701 117.231 178.526 103.589 177.877C102.978 177.846 102.403 177.582 101.982 177.14C101.562 176.698 101.327 176.112 101.328 175.503V175.433C101.328 174.803 101.579 174.199 102.027 173.753C102.474 173.308 103.08 173.057 103.713 173.057H118.159Z" fill="#3F3D56"/>
        <path d="M145.744 173.057V167.466C141.673 167.524 127.103 167.425 123.302 167.467C123.017 187.177 121.255 183.111 137.773 183.258C138.402 183.265 139.002 183.518 139.444 183.963C139.886 184.408 140.134 185.008 140.134 185.634C140.134 185.928 140.134 186.229 140.134 186.523C140.133 186.835 140.072 187.144 139.952 187.432C139.832 187.72 139.656 187.982 139.435 188.203C139.214 188.423 138.951 188.598 138.662 188.718C138.372 188.837 138.062 188.898 137.749 188.898H123.302V194.489H145.744C145.775 194.47 145.721 189.091 145.744 188.898C146.693 172.701 144.815 178.526 131.173 177.877C130.562 177.846 129.987 177.582 129.567 177.14C129.146 176.698 128.912 176.112 128.913 175.503V175.433C128.913 174.803 129.164 174.199 129.611 173.753C130.058 173.308 130.665 173.057 131.297 173.057H145.744Z" fill="#3F3D56"/>
        <path d="M89.1725 173.057V167.466H66.731C66.7151 172.453 66.7424 185.652 66.7309 190.762C62.332 198.183 87.3222 193.045 89.1737 194.491C89.1725 194.489 89.1725 188.898 89.1725 188.898C72.0977 188.809 71.6686 191.995 72.2179 176.584C72.251 175.638 72.6512 174.741 73.3344 174.084C74.0176 173.426 74.9304 173.058 75.8804 173.057C80.8168 173.057 89.1725 173.057 89.1725 173.057Z" fill="#3F3D56"/>
        <path d="M133.531 124.45L109.819 123.828C106.53 123.741 102.832 123.746 100.486 125.157C97.8239 126.76 98.2269 129.599 100.437 131.44C102.648 133.281 106.177 134.333 109.641 135.189C128.045 139.733 148.413 140.655 168.19 139.627C187.967 138.599 207.336 135.692 226.611 132.795C228.439 132.52 230.511 132.125 231.256 131.068C231.977 130.046 231.034 128.813 229.568 128.153C228.102 127.492 226.244 127.269 224.452 127.073C191.928 123.527 159.16 122.75 126.503 124.752" fill="#6C63FF"/>
        <path d="M129.38 99.9094C128.998 108.541 132.182 111.258 121.198 110.158C120.456 105.009 124.219 97.8633 115.588 99.6775C117.317 103.413 110.771 131.753 121.197 126.698C121.782 118.183 117.923 114.449 129.38 115.751C130.299 121.015 126.011 128.76 134.99 126.931C133.261 123.194 139.807 94.8571 129.38 99.9094Z" fill="#3F3D56"/>
        <path d="M186.887 99.9096C187.657 100.383 179.831 108.633 179.663 109.309C179.428 108.732 171.959 100.661 172.861 99.9099C162.468 94.7919 168.945 123.296 167.248 126.934C167.25 126.932 172.861 126.932 172.861 126.932V109.229C180.747 119.828 179.282 118.044 186.887 108.708L186.887 126.932C197.279 132.052 190.803 103.544 192.499 99.9083C192.497 99.9096 186.887 99.9096 186.887 99.9096Z" fill="#3F3D56"/>
        <path d="M162.107 99.9097H139.666C138.347 107.747 142.707 105.119 148.082 105.5L148.081 126.932H153.692V105.501C159.042 105.138 163.443 107.713 162.107 99.9097Z" fill="#3F3D56"/>
        <path d="M202.783 121.341C201.487 114.256 201.487 106.995 202.783 99.9097H197.172C197.205 103.452 197.162 117.746 197.166 124.282C197.165 124.988 197.446 125.664 197.946 126.163C198.447 126.663 199.125 126.943 199.833 126.944C205.486 126.951 216.276 126.91 219.614 126.932L219.614 121.341H202.783Z" fill="#3F3D56"/>
        <path d="M59.4614 122.273H36.6579C35.5419 122.273 34.4716 122.715 33.6825 123.501C32.8934 124.287 32.4501 125.354 32.4501 126.466C32.4501 127.578 32.8934 128.645 33.6825 129.431C34.4716 130.218 35.5419 130.659 36.6579 130.659H59.4614C60.5774 130.659 61.6476 130.218 62.4367 129.431C63.2259 128.645 63.6692 127.578 63.6692 126.466C63.6692 125.354 63.2259 124.287 62.4367 123.501C61.6476 122.715 60.5773 122.273 59.4614 122.273Z" fill="#E6E6E6"/>
        <path d="M266.209 241.14L261.58 241.139L259.378 223.346L266.21 223.347L266.209 241.14Z" fill="#FFB6B6"/>
        <path d="M266.372 245.952L252.137 245.951V245.772C252.137 244.307 252.721 242.903 253.76 241.868C254.799 240.832 256.209 240.251 257.678 240.25L260.279 238.285L265.13 240.251L266.373 240.251L266.372 245.952Z" fill="#2F2E41"/>
        <path d="M282.573 241.14L277.944 241.139L275.742 223.346L282.574 223.347L282.573 241.14Z" fill="#FFB6B6"/>
        <path d="M282.736 245.952L268.501 245.951V245.772C268.501 244.307 269.085 242.903 270.124 241.868C271.163 240.832 272.572 240.251 274.042 240.25L276.642 238.285L281.494 240.251L282.736 240.251L282.736 245.952Z" fill="#2F2E41"/>
        <path d="M254.683 144.189C254.683 144.189 250.23 157.821 251.052 159.615C251.874 161.409 253.276 160.012 251.874 161.409C250.471 162.807 249.247 161.321 250.56 163.695C251.874 166.068 253.864 185.608 254.739 186.554C255.614 187.5 256.817 187.526 255.748 188.445C254.679 189.364 253.276 187.5 254.679 189.364C256.082 191.228 259.803 234.22 259.803 234.22H267.074C267.074 234.22 268.885 232.14 267.86 230.786C266.835 229.432 267.95 228.91 267.86 228.006C267.77 227.103 268.111 225.154 268.174 224.265C268.237 223.375 269.466 202.191 266.514 189.954L271.897 166.652L274.589 194.815C274.589 194.815 271.589 218.437 274.589 226.031C274.589 226.031 272.17 228.038 273.243 229.201C274.315 230.364 275.25 229.432 274.315 230.364C273.38 231.296 275.718 234.557 275.718 234.557L283.666 234.091L288.165 189.954C288.165 189.954 288.923 185.35 288.165 184.562C287.406 183.773 287.406 186.568 287.406 183.773V180.046C287.406 180.046 290.796 157.121 290.738 155.771C290.679 154.421 285.069 144.637 285.069 144.637L254.683 144.189Z" fill="#2F2E41"/>
        <path d="M278.191 89.0572L266.585 88.2617L263.113 93.7184L254.749 97.107V123.987C255.619 126.59 256.069 129.314 256.082 132.057C256.05 137.413 254.668 143.721 255.146 145.103C259.822 158.614 285.536 145.103 285.536 145.103L285.069 130.659L285.703 98.0181L280.449 93.8418L278.191 89.0572Z" fill="#E6E6E6"/>
        <path d="M254.213 150.025L253.412 141.526L248.477 141.304L249.644 150.26C249.344 150.7 249.174 151.214 249.152 151.745C249.13 152.276 249.257 152.803 249.519 153.266C249.781 153.729 250.167 154.11 250.635 154.367C251.102 154.623 251.632 154.744 252.165 154.717C252.698 154.689 253.212 154.514 253.65 154.212C254.089 153.909 254.434 153.49 254.647 153.003C254.859 152.515 254.931 151.978 254.855 151.452C254.778 150.926 254.556 150.432 254.213 150.025Z" fill="#FFB6B6"/>
        <path d="M256.642 96.3904L256.505 96.4135C255.232 96.6284 254.031 97.1493 253.006 97.9309C251.981 98.7126 251.162 99.7315 250.621 100.899C249.208 103.945 244.618 123.97 246.63 126.989C248.19 129.331 247.811 128.875 247.078 130.641C246.344 132.408 245.163 130.523 246.131 133.327C247.099 136.13 248.163 135.73 247.265 136.814C246.366 137.897 245.444 137.685 246.318 139.499C247.192 141.313 247.05 141.926 247.215 142.609C247.38 143.292 247.237 148.098 247.237 148.098C247.237 148.098 252.509 147.7 255.132 148.949C255.132 148.949 253.668 144.096 254.496 143.319C255.324 142.541 256.317 142.448 255.608 141.317C254.899 140.185 253.292 140.138 255.041 139.573C256.791 139.008 256.227 128.878 256.227 128.878C259.109 121.358 257.97 108.989 256.642 96.3904Z" fill="#E6E6E6"/>
        <path d="M288.431 150.631L288.8 142.103L293.718 141.633L293.006 150.636C293.327 151.06 293.523 151.566 293.572 152.095C293.621 152.624 293.521 153.157 293.283 153.632C293.044 154.108 292.678 154.508 292.224 154.788C291.77 155.067 291.247 155.215 290.714 155.214C290.18 155.214 289.658 155.065 289.204 154.784C288.751 154.504 288.386 154.103 288.148 153.627C287.911 153.151 287.812 152.618 287.862 152.089C287.912 151.56 288.109 151.055 288.431 150.631Z" fill="#FFB6B6"/>
        <path d="M283.29 97.1873L283.428 97.2034C284.71 97.3541 285.936 97.814 286.999 98.5431C288.063 99.2722 288.932 100.249 289.531 101.388C291.097 104.359 296.051 124.482 294.838 127.244C293.707 129.819 293.754 129.186 294.576 130.914C295.398 132.641 296.482 130.699 295.657 133.548C294.832 136.397 293.749 136.051 294.702 137.088C295.654 138.124 296.564 137.866 295.783 139.722C295.002 141.578 295.175 142.183 295.044 142.873C294.914 143.564 295.301 148.357 295.301 148.357C295.301 148.357 290.015 148.224 287.458 149.603C287.458 149.603 288.675 144.682 287.809 143.948C286.943 143.213 285.946 143.169 286.597 142.004C287.247 140.839 288.85 140.71 287.074 140.234C285.298 139.758 285.348 129.612 285.348 129.612L283.29 97.1873Z" fill="#E6E6E6"/>
        <path d="M272.673 86.553C277.672 86.553 281.725 82.5142 281.725 77.532C281.725 72.5498 277.672 68.511 272.673 68.511C267.673 68.511 263.62 72.5498 263.62 77.532C263.62 82.5142 267.673 86.553 272.673 86.553Z" fill="#FFB6B6"/>
        <path d="M278.973 85.254C280.232 84.2721 280.354 82.4005 281.428 81.2207C283.225 79.2482 284.069 77.126 283.128 74.7887C282.295 72.7215 282.472 70.1803 280.68 68.8497C281.56 68.5321 281.767 67.8725 280.991 67.8604C280.467 67.8521 278.514 68.8498 279.454 67.607C280.393 66.3641 278.615 66.8547 278.732 66.346C278.85 65.8372 279.604 65.5555 279.937 65.9587C279.656 65.6728 279.313 65.4546 278.935 65.3208C278.556 65.187 278.152 65.1411 277.753 65.1866C277.354 65.232 276.971 65.3677 276.633 65.5832C276.295 65.7988 276.01 66.0884 275.801 66.4302C274.742 64.8489 273.619 63.7609 271.998 64.7643C270.407 65.7499 270.428 66.9682 268.717 66.6754C267.912 66.5377 267.836 68.0522 267.287 68.6536C267.033 68.9732 266.703 69.2245 266.326 69.3844C265.95 69.5443 265.539 69.6079 265.132 69.5694C264.33 69.4184 263.717 68.4224 264.166 67.7434L262.276 72.0407L261.514 71.1095C260.304 71.8957 260.701 73.947 261.92 74.7208C263.138 75.4946 264.722 75.3292 266.125 74.9863C267.814 74.5733 269.558 74.4292 271.292 74.5592C273.941 74.9321 275.786 78.0883 274.805 80.5688C275.823 79.5728 277.706 80.3993 278.233 81.7202C278.761 83.0411 278.374 84.5292 277.983 85.8964" fill="#2F2E41"/>
    </g>
    <defs>
        <clipPath id="clip0_3134_396">
            <rect width="324" height="246" fill="white"/>
        </clipPath>
    </defs>
</svg>
